<svg xmlns="http://www.w3.org/2000/svg" xmlns:xlink="http://www.w3.org/1999/xlink" viewBox="0 0 1366 768"><defs><style>.a{fill:url(#a);}.b{clip-path:url(#b);}.c,.d{fill:none;stroke:#fff;stroke-miterlimit:10;stroke-width:2px;}.c{opacity:0.59;}.e,.f{fill:#fff;}.e{opacity:0.3;}</style><linearGradient id="a" x1="0.799" y1="0.259" x2="-0.239" y2="1.224" gradientUnits="objectBoundingBox"><stop offset="0" stop-color="#00356b"/><stop offset="1" stop-color="#000e1c"/></linearGradient><clipPath id="b"><rect width="1365.333" height="768"/></clipPath></defs><rect class="a" width="1366" height="768"/><g class="b"><line class="c" x1="412.871" y2="284.018" transform="translate(668.516 394.596)"/><line class="c" x2="354.347" y2="72.604" transform="translate(1105.422 391.111)"/><line class="c" x1="16.853" y2="287.644" transform="translate(1132.444 619.236)"/><line class="c" y1="36.48" x2="345.458" transform="translate(1165.867 567.538)"/><line class="c" x2="172.658" y2="126.364" transform="translate(1163.733 612.764)"/><line class="c" x2="75.591" y2="33.991" transform="translate(1629.938 344.107)"/><line class="c" x2="51.769" y2="54.258" transform="translate(1628.018 347.591)"/><line class="c" x2="315.876" y2="172.8" transform="translate(1217.92 363.804)"/><line class="c" x2="232.036" y2="102.187" transform="translate(1229.014 351.858)"/><line class="c" x2="91.876" y2="24.036" transform="translate(1482.88 461.156)"/><line class="c" x2="70.684" y2="45.298" transform="translate(1481.884 463.716)"/><line class="c" x2="97.351" y2="18.916" transform="translate(1473.707 469.618)"/><line class="c" y1="136.107" x2="704.142" transform="translate(758.471 459.449)"/><line class="c" y1="76.302" x2="477.085" transform="translate(664.818 605.724)"/><line class="c" x2="122.738" y2="158.862" transform="translate(756.338 604.302)"/><line class="c" x2="87.396" y2="245.831" transform="translate(892.16 790.187)"/><line class="c" x2="45.653" y2="294.542" transform="translate(909.013 766.151)"/><line class="c" x2="155.236" y2="142.436" transform="translate(746.453 608.356)"/><line class="c" y1="372.978" x2="290.062" transform="translate(915.484 365.084)"/><line class="c" x2="243.271" y2="108.871" transform="translate(920.747 760.391)"/><line class="c" x2="303.929" y2="73.244" transform="translate(903.324 776.533)"/><line class="d" y1="339.769" x2="368.284" transform="translate(587.947 450.56)"/><line class="d" y1="106.667" x2="491.591" transform="translate(978.844 331.52)"/><line class="d" x1="117.262" y2="232.32" transform="translate(842.382 454.187)"/><line class="d" x2="50.773" y2="187.733" transform="translate(1097.102 400.498)"/><line class="d" y1="44.231" x2="504.96" transform="translate(1103.858 341.547)"/><line class="d" x2="478.649" y2="17.493" transform="translate(1230.009 349.227)"/><line class="d" x2="8.604" y2="204.658" transform="translate(1482.453 339.058)"/><line class="d" x2="198.258" y2="61.938" transform="translate(1494.258 331.591)"/><line class="d" y1="360.32" x2="628.196" transform="translate(846.649 330.809)"/><line class="d" y1="142.436" x2="635.378" transform="translate(848.213 552.249)"/><line class="d" x1="237.227" y2="93.084" transform="translate(586.809 703.431)"/><line class="d" x2="229.902" y2="241.778" transform="translate(849.28 712.462)"/><circle class="e" cx="12.516" cy="12.516" r="12.516" transform="translate(1199.502 344.889)"/><circle class="e" cx="17.493" cy="17.493" r="17.493" transform="translate(892.089 734.507)"/><circle class="e" cx="12.516" cy="12.516" r="12.516" transform="translate(724.622 585.742)"/><circle class="f" cx="17.493" cy="17.493" r="17.493" transform="translate(819.911 682.951)"/><circle class="f" cx="12.516" cy="12.516" r="12.516" transform="translate(737.067 584.462)"/><circle class="f" cx="13.156" cy="13.156" r="13.156" transform="translate(643.556 672.071)"/><circle class="f" cx="13.156" cy="13.156" r="13.156" transform="translate(565.547 786.56)"/><circle class="f" cx="17.493" cy="17.493" r="17.493" transform="translate(870.898 755.769)"/><circle class="f" cx="17.493" cy="17.493" r="17.493" transform="translate(1134.151 587.733)"/><circle class="f" cx="12.516" cy="12.516" r="12.516" transform="translate(1080.604 376.32)"/><circle class="f" cx="13.156" cy="13.156" r="13.156" transform="translate(953.173 428.942)"/><circle class="f" cx="12.516" cy="12.516" r="12.516" transform="translate(1205.191 334.507)"/><circle class="f" cx="17.493" cy="17.493" r="17.493" transform="translate(1475.058 533.333)"/><circle class="f" cx="17.493" cy="17.493" r="17.493" transform="translate(1453.084 441.387)"/><circle class="f" cx="12.516" cy="12.516" r="12.516" transform="translate(1469.44 316.8)"/><circle class="f" cx="12.516" cy="12.516" r="12.516" transform="translate(1608.747 327.751)"/><line class="d" y1="108.8" x2="71.822" transform="translate(578.489 690.844)"/></g></svg>