<svg xmlns="http://www.w3.org/2000/svg" viewBox="0 0 132.571 26.381"><defs><style>.a{fill:#fefefd;}</style></defs><path class="a" d="M.888-25.6h2.96L9.731-2.516H11.8L17.686-25.6h2.96L13.949,0H7.585Zm42.513,0V0H38.184L28.231-23.088h-.7V0H24.679V-25.6h5.328L39.849-2.516h.74V-25.6ZM58.793.37A11.434,11.434,0,0,1,52.762-1,7.506,7.506,0,0,1,49.6-5.2a24.316,24.316,0,0,1-.944-7.493,24.457,24.457,0,0,1,.962-7.53A7.859,7.859,0,0,1,52.8-24.549a10.918,10.918,0,0,1,5.957-1.425,10.918,10.918,0,0,1,5.957,1.425,7.944,7.944,0,0,1,3.2,4.329,24.319,24.319,0,0,1,.98,7.6,24.284,24.284,0,0,1-.944,7.511A7.36,7.36,0,0,1,64.806-.962,11.588,11.588,0,0,1,58.793.37Zm0-2.516a7.731,7.731,0,0,0,4.347-1.036,5.584,5.584,0,0,0,2.164-3.274,23.761,23.761,0,0,0,.629-6.161,24.205,24.205,0,0,0-.648-6.253,6.114,6.114,0,0,0-2.2-3.459,7.254,7.254,0,0,0-4.329-1.128,7.346,7.346,0,0,0-4.329,1.11,6.023,6.023,0,0,0-2.2,3.441,24.023,24.023,0,0,0-.647,6.216,24.022,24.022,0,0,0,.629,6.161,5.618,5.618,0,0,0,2.2,3.33A7.812,7.812,0,0,0,58.793-2.146ZM83.25-25.6a9.247,9.247,0,0,1,5.976,1.7,8.168,8.168,0,0,1,2.794,4.329,23.9,23.9,0,0,1,.7,6.142q0,7.03-2.312,10.23T83.25,0H74.111V-25.6Zm0,23.088q6.549,0,6.549-10.656,0-5.18-1.591-7.548a5.551,5.551,0,0,0-4.958-2.368H76.96V-2.516Zm17.575-20.572v12.843h10.508v2.479H100.825v5.25h12.728V0H97.976V-25.6h15.577v2.516ZM125.282.333A47.613,47.613,0,0,1,118.511-.3l-1.332-.185.3-2.368a64.135,64.135,0,0,0,7.659.666q5.476,0,5.476-5.143a4.229,4.229,0,0,0-.5-2.22,3.564,3.564,0,0,0-1.7-1.332,17.9,17.9,0,0,0-3.5-.962,21.015,21.015,0,0,1-4.717-1.443,5.436,5.436,0,0,1-2.461-2.183,7.413,7.413,0,0,1-.777-3.663q0-6.882,8.251-6.882a54.649,54.649,0,0,1,7.733.74l-.259,2.405q-5.328-.629-7.289-.629-5.55,0-5.55,4.181a4.5,4.5,0,0,0,.536,2.424,3.739,3.739,0,0,0,1.831,1.351,29.307,29.307,0,0,0,4.107,1.147,18.534,18.534,0,0,1,4.237,1.406,5.1,5.1,0,0,1,2.2,2.054,7.014,7.014,0,0,1,.7,3.385Q133.459.333,125.282.333Z" transform="translate(-0.888 26.011)"/></svg>