<svg xmlns="http://www.w3.org/2000/svg" xmlns:xlink="http://www.w3.org/1999/xlink" viewBox="0 0 1920 768.375"><defs><style>.a{fill:#000e1c;}.b{fill:#fefefd;}.c{opacity:0.27;}.d{opacity:0.3;clip-path:url(#a);}.e{fill:none;stroke:#00356b;stroke-miterlimit:10;stroke-width:2px;}.f{clip-path:url(#b);}</style><clipPath id="a"><rect class="a" width="1920" height="768.375"/></clipPath><clipPath id="b"><rect class="a" width="1920" height="768.375" transform="translate(-277)"/></clipPath></defs><g transform="translate(277 -1080)"><rect class="b" width="1920" height="768" transform="translate(-277 1080)"/><g class="c" transform="translate(-145.4 704)"><g class="d" transform="translate(-131.6 376)"><g transform="translate(-90.8 -229.801)"><line class="e" y1="26.893" x2="276.6" transform="translate(428.1 965.093)"/><line class="e" x1="387" y1="60.189" transform="translate(427 993.409)"/><line class="e" y1="78.047" x2="221.4" transform="translate(425.3 907.536)"/><line class="e" x1="145.4" y1="228.236" transform="translate(261 755.64)"/><line class="e" x1="93.5" y1="67.304" transform="translate(615.1 884.058)"/><line class="e" x1="10.3" y2="44.537" transform="translate(615.1 839.521)"/><line class="e" x2="344.3" y2="136.387" transform="translate(269.7 749.023)"/><line class="e" x2="343.9" y2="86.086" transform="translate(272.8 744.826)"/><line class="e" x1="228.6" y1="78.687" transform="translate(0.8 653.474)"/><line class="e" y1="49.802" x2="354.1" transform="translate(2.9 597.34)"/><line class="e" y1="152.679" x2="113.2" transform="translate(262.3 575.712)"/><line class="e" y1="275.761" x2="358" transform="translate(0 368.535)"/><line class="e" x1="26.7" y1="232.078" transform="translate(353.4 323.856)"/><line class="e" x1="347.5" y1="261.176" transform="translate(223 224.75)"/><line class="e" x2="282.8" y2="32.727" transform="translate(233.1 217.849)"/><line class="e" y1="43.043" x2="424.6" transform="translate(233.3 167.762)"/><line class="e" y1="64.743" x2="123.5" transform="translate(532.9 183.272)"/><line class="e" x1="64" y1="185.193" transform="translate(529.6 259.255)"/><line class="e" y1="298.172" x2="92.8" transform="translate(582.5 185.05)"/><line class="e" y1="190.884" x2="254.8" transform="translate(592.3 296.038)"/><line class="e" x1="152.1" y1="103.659" transform="translate(698.3 181.137)"/><line class="e" x1="45.6" y1="6.403" transform="translate(706.7 166.339)"/><line class="e" x2="694.5" y2="51.083" transform="translate(769.2 173.738)"/><line class="e" x1="361.7" y2="172.244" transform="translate(765.3 0)"/><line class="e" y1="174.45" x2="169.6" transform="translate(961.2 5.051)"/><line class="e" x2="316.1" y2="215.287" transform="translate(1150.7 5.336)"/><line class="e" x1="320" y1="23.407" transform="translate(1482.5 226.528)"/><line class="e" y1="62.537" x2="587.4" transform="translate(873.3 225.461)"/><line class="e" y1="147.058" x2="247.5" transform="translate(1148.3 231.58)"/><line class="e" x1="262.2" y1="87.652" transform="translate(870.1 292.196)"/><line class="e" x1="9.9" y1="132.616" transform="translate(860.9 301.231)"/><line class="e" x1="320" y1="216.781" transform="translate(863.1 294.899)"/><line class="e" x2="296.4" y2="75.415" transform="translate(885.5 441.175)"/><line class="e" y1="233.287" x2="308.8" transform="translate(264.2 499.373)"/><line class="e" x1="40.9" y1="321.579" transform="translate(581.9 504.495)"/><line class="e" x1="39.7" y2="223.256" transform="translate(628.8 601.467)"/><line class="e" x1="77.9" y1="91.92" transform="translate(586.9 501.009)"/><line class="e" x2="191.5" y2="19.921" transform="translate(678.6 598.123)"/><line class="e" x1="193.5" y2="206.75" transform="translate(672.8 385.61)"/><line class="e" x1="143.3" y1="166.552" transform="translate(673.5 601.538)"/><line class="e" x1="14.2" y1="153.96" transform="translate(872.3 448.788)"/><line class="e" y1="130.197" x2="58.7" transform="translate(825.8 635.973)"/><line class="e" x2="346.6" y2="28.031" transform="translate(912.9 621.53)"/><line class="e" x2="252.1" y2="125.074" transform="translate(909.6 629.285)"/><line class="e" y1="116.537" x2="114.1" transform="translate(1144.3 654.542)"/><line class="e" x1="60.2" y1="115.683" transform="translate(1201.4 531.104)"/><line class="e" x2="97.4" y2="7.897" transform="translate(1270.4 651.838)"/><line class="e" y1="102.023" x2="229.1" transform="translate(1147.1 675.459)"/><line class="e" x2="45.5" y2="172.884" transform="translate(1413.6 689.474)"/><line class="e" x2="279.3" y2="115.541" transform="translate(1432 674.889)"/><line class="e" y1="59.193" x2="204.9" transform="translate(1439.6 595.277)"/><line class="e" x1="171.6" y1="118.102" transform="translate(1206.5 527.617)"/><line class="e" y1="155.169" x2="230.8" transform="translate(1430.9 490.693)"/><line class="e" y1="403.468" x2="70.1" transform="translate(1402.3 233.429)"/><line class="e" x1="47.2" y1="119.738" transform="translate(1141 388.456)"/><line class="e" y1="284.156" x2="268.6" transform="translate(1198.9 229.872)"/><line class="e" x1="344.3" y2="57.059" transform="translate(1458 256.979)"/><line class="e" x1="204.1" y1="162.497" transform="translate(1458 314.038)"/><line class="e" y1="211.09" x2="138.9" transform="translate(1676 267.081)"/><line class="e" x2="31" y2="256.908" transform="translate(1831.8 268.077)"/><line class="e" x1="156.8" y1="49.873" transform="translate(1682.7 486.068)"/><line class="e" y1="46.885" x2="175.7" transform="translate(1664.7 541.633)"/><line class="e" x1="12.7" y2="186.829" transform="translate(1862.1 556.36)"/><line class="e" x1="75.6" y1="264.663" transform="translate(1655.4 597.625)"/><line class="e" x1="124" y2="309.84" transform="translate(1733.9 555.364)"/><line class="e" x1="115" y2="110.845" transform="translate(1740.9 751.585)"/><line class="e" x2="99.1" y2="209.098" transform="translate(1867.8 752.509)"/><line class="e" x1="221.1" y1="95.549" transform="translate(1741.7 871.679)"/><line class="e" x2="437.2" y2="95.976" transform="translate(1524.6 872.604)"/><line class="e" x1="248" y2="1.85" transform="translate(1474.8 869.971)"/><line class="e" x1="311.8" y1="27.462" transform="translate(1135.2 841.086)"/><line class="e" y1="44.608" x2="5.4" transform="translate(1125.3 792.778)"/><line class="e" x1="74.2" y1="276.757" transform="translate(1464.5 882.279)"/><line class="e" y1="246.947" x2="157.9" transform="translate(1545.7 912.872)"/><line class="e" x1="338.8" y2="137.881" transform="translate(1110.9 878.509)"/><line class="e" y1="170.394" x2="23.1" transform="translate(1102 844.43)"/><line class="e" x1="404.4" y1="58.695" transform="translate(1112.8 1020.658)"/><line class="e" x1="404" y1="140.869" transform="translate(1116.6 1025.638)"/><line class="e" x2="353.8" y2="55.778" transform="translate(1165.7 1112.152)"/><line class="e" x1="43.7" y1="70.079" transform="translate(1106.4 1032.611)"/><line class="e" x1="157" y2="120.094" transform="translate(990.7 1116.136)"/><line class="e" x1="112.7" y2="202.979" transform="translate(984.8 1031.045)"/><line class="e" x1="226.1" y1="258.473" transform="translate(745.7 976.05)"/><line class="e" x1="324" y1="51.794" transform="translate(764.9 967.085)"/><line class="e" y1="160.363" x2="73.6" transform="translate(743.7 784.454)"/><line class="e" y1="162.284" x2="364.4" transform="translate(759.4 788.438)"/><line class="e" x1="283.6" y1="7.968" transform="translate(835.5 773.355)"/></g><g transform="translate(-119.7 -247.232)"><ellipse class="a" cx="17.8" cy="12.664" rx="17.8" ry="12.664" transform="translate(424.7 997.607)"/><ellipse class="a" cx="33.4" cy="23.763" rx="33.4" ry="23.763" transform="translate(728.7 956.058)"/><ellipse class="a" cx="26.7" cy="18.996" rx="26.7" ry="18.996" transform="translate(252.2 740.059)"/><ellipse class="a" cx="17.8" cy="12.664" rx="17.8" ry="12.664" transform="translate(0 653.83)"/><ellipse class="a" cx="17.8" cy="12.664" rx="17.8" ry="12.664" transform="translate(392 569.949)"/><ellipse class="a" cx="13.4" cy="9.534" rx="13.4" ry="9.534" transform="translate(641.1 840.375)"/><ellipse class="a" cx="20" cy="14.229" rx="20" ry="14.229" transform="translate(991.4 1247.115)"/><ellipse class="a" cx="13.4" cy="9.534" rx="13.4" ry="9.534" transform="translate(1170.4 1117.772)"/><ellipse class="a" cx="17.8" cy="12.664" rx="17.8" ry="12.664" transform="translate(1112.9 1026.634)"/><ellipse class="a" cx="26.7" cy="18.996" rx="26.7" ry="18.996" transform="translate(1541.5 1170.207)"/><ellipse class="a" cx="17.8" cy="12.664" rx="17.8" ry="12.664" transform="translate(832.6 780.043)"/><ellipse class="a" cx="26.7" cy="18.996" rx="26.7" ry="18.996" transform="translate(212.5 213.082)"/><ellipse class="a" cx="17.8" cy="12.664" rx="17.8" ry="12.664" transform="translate(591.3 497.879)"/><ellipse class="a" cx="11.1" cy="7.897" rx="11.1" ry="7.897" transform="translate(687.5 606.091)"/><ellipse class="a" cx="13.4" cy="9.534" rx="13.4" ry="9.534" transform="translate(1139.7 850.193)"/><ellipse class="a" cx="17.8" cy="12.664" rx="17.8" ry="12.664" transform="translate(1144.1 787.727)"/><ellipse class="a" cx="17.8" cy="12.664" rx="17.8" ry="12.664" transform="translate(1472.9 877.086)"/><ellipse class="a" cx="15.6" cy="11.099" rx="15.6" ry="11.099" transform="translate(1746 876.446)"/><ellipse class="a" cx="15.6" cy="11.099" rx="15.6" ry="11.099" transform="translate(1984 976.477)"/><ellipse class="a" cx="11.1" cy="7.897" rx="11.1" ry="7.897" transform="translate(1879.8 756.28)"/><ellipse class="a" cx="28.9" cy="20.561" rx="28.9" ry="20.561" transform="translate(1865.4 535.372)"/><ellipse class="a" cx="15.6" cy="11.099" rx="15.6" ry="11.099" transform="translate(1685.2 490.124)"/><ellipse class="a" cx="13.4" cy="9.534" rx="13.4" ry="9.534" transform="translate(1670.1 599.831)"/><ellipse class="a" cx="24.5" cy="17.431" rx="24.5" ry="17.431" transform="translate(1828.6 254.489)"/><ellipse class="a" cx="40.1" cy="28.529" rx="40.1" ry="28.529" transform="translate(1392.3 651.34)"/><ellipse class="a" cx="8.9" cy="6.332" rx="8.9" ry="6.332" transform="translate(1283.5 662.154)"/><ellipse class="a" cx="20" cy="14.229" rx="20" ry="14.229" transform="translate(1203.7 522.851)"/><ellipse class="a" cx="24.5" cy="17.431" rx="24.5" ry="17.431" transform="translate(893.4 619.751)"/><ellipse class="a" cx="13.4" cy="9.534" rx="13.4" ry="9.534" transform="translate(887.1 447.436)"/><ellipse class="a" cx="13.4" cy="9.534" rx="13.4" ry="9.534" transform="translate(540.3 260.038)"/><ellipse class="a" cx="33.4" cy="23.763" rx="33.4" ry="23.763" transform="translate(672.3 159.58)"/><ellipse class="a" cx="8.9" cy="6.332" rx="8.9" ry="6.332" transform="translate(780.2 186.829)"/><ellipse class="a" cx="15.6" cy="11.099" rx="15.6" ry="11.099" transform="translate(967.3 192.094)"/><ellipse class="a" cx="17.8" cy="12.664" rx="17.8" ry="12.664" transform="translate(1149.2 0)"/><ellipse class="a" cx="13.4" cy="9.534" rx="13.4" ry="9.534" transform="translate(1155.7 390.662)"/><ellipse class="a" cx="15.6" cy="11.099" rx="15.6" ry="11.099" transform="translate(872.6 296.18)"/><ellipse class="a" cx="13.4" cy="9.534" rx="13.4" ry="9.534" transform="translate(1489.1 232.86)"/></g></g><g class="f" transform="translate(145.4 376)"><g transform="translate(-85.019 -247.374)"><line class="e" x1="171.106" y2="122.442" transform="translate(839.663 36.071)"/><line class="e" y1="79.683" x2="287.714" transform="translate(723.055 34.363)"/><line class="e" x1="109.067" y2="150.971" transform="translate(906.754 41.122)"/><line class="e" x2="209.667" y2="162.711" transform="translate(1029.267 36.071)"/><line class="e" x2="95.62" y2="30.166" transform="translate(843.861 172.813)"/><line class="e" x1="15.083" y1="45.32" transform="translate(939.481 202.979)"/><line class="e" x1="296.963" y1="6.688" transform="translate(939.481 201.343)"/><line class="e" x1="271.777" y2="40.269" transform="translate(964.666 213.082)"/><line class="e" y1="6.688" x2="191.24" transform="translate(1271.661 202.979)"/><line class="e" x1="211.374" y2="171.177" transform="translate(1253.234 209.667)"/><line class="e" y2="182.845" transform="translate(1251.526 224.821)"/><line class="e" x1="102.308" y2="384.188" transform="translate(1365.644 211.374)"/><line class="e" x2="132.545" y2="208.03" transform="translate(1258.214 427.8)"/><line class="e" x2="360.638" y2="122.442" transform="translate(1166.009 560.345)"/><line class="e" x1="204.687" y2="68.727" transform="translate(1318.617 692.889)"/><line class="e" x1="261.674" y2="189.533" transform="translate(1264.973 699.577)"/><line class="e" x1="50.371" y2="104.015" transform="translate(1258.214 770.011)"/><line class="e" x2="134.252" y2="150.971" transform="translate(1170.989 607.301)"/><line class="e" x2="85.588" y2="312.046" transform="translate(1159.25 567.032)"/><line class="e" x1="75.486" y2="268.433" transform="translate(1075.369 567.032)"/><line class="e" x2="152.679" y2="43.612" transform="translate(1078.713 847.205)"/><line class="e" y1="10.032" x2="33.581" transform="translate(1199.519 907.607)"/><line class="e" x1="488.203" y2="196.291" transform="translate(699.577 922.69)"/><line class="e" y1="288.568" x2="156.023" transform="translate(1035.101 922.69)"/><line class="e" x1="26.822" y2="223.184" transform="translate(1030.12 984.729)"/><line class="e" x1="317.097" y1="90.569" transform="translate(699.577 1124.033)"/><line class="e" y1="90.569" x2="224.821" transform="translate(461.381 1124.033)"/><line class="e" x1="360.709" y2="265.018" transform="translate(701.284 852.256)"/><line class="e" x1="92.276" y2="224.75" transform="translate(741.553 863.995)"/><line class="e" y1="10.032" x2="218.133" transform="translate(843.861 847.205)"/><line class="e" x2="72.142" y2="120.806" transform="translate(991.488 714.66)"/><line class="e" x2="320.441" y2="90.569" transform="translate(744.897 751.585)"/><line class="e" x1="234.924" y2="33.581" transform="translate(743.189 712.952)"/><line class="e" x1="90.569" y2="327.129" transform="translate(1157.614 221.477)"/><line class="e" x2="186.26" y2="286.86" transform="translate(962.959 260.038)"/><line class="e" x1="83.881" y1="223.113" transform="translate(959.615 263.382)"/><line class="e" x2="97.327" y2="58.766" transform="translate(1050.184 493.183)"/><line class="e" x1="137.525" y2="48.664" transform="translate(900.92 493.183)"/><line class="e" y1="261.674" x2="26.893" transform="translate(1018.31 496.598)"/><line class="e" x2="177.793" y2="105.723" transform="translate(862.359 382.48)"/><line class="e" x2="85.517" y2="139.232" transform="translate(897.576 561.981)"/><line class="e" x2="25.114" y2="142.576" transform="translate(857.307 387.531)"/><line class="e" x1="244.884" y2="95.62" transform="translate(625.799 553.586)"/><line class="e" x1="229.872" y1="28.458" transform="translate(639.174 516.732)"/><line class="e" x1="18.498" y2="149.335" transform="translate(624.091 494.89)"/><line class="e" x2="97.256" y2="87.225" transform="translate(625.799 652.621)"/><line class="e" x1="68.798" y2="26.822" transform="translate(548.606 650.913)"/><line class="e" x1="102.379" y2="176.157" transform="translate(535.159 489.839)"/><line class="e" x1="115.754" y1="145.92" transform="translate(387.531 520.076)"/><line class="e" x1="243.248" y1="10.032" transform="translate(255.058 676.099)"/><line class="e" x1="107.359" y2="127.493" transform="translate(395.927 707.972)"/><line class="e" x2="172.813" y2="50.3" transform="translate(548.606 694.526)"/><line class="e" x1="77.193" y2="226.528" transform="translate(436.195 712.952)"/><line class="e" x2="152.679" y2="402.614" transform="translate(536.866 711.316)"/><line class="e" x2="90.64" y2="95.62" transform="translate(743.189 756.636)"/><line class="e" x1="38.561" y2="360.709" transform="translate(694.597 754.928)"/><line class="e" y1="174.521" x2="201.272" transform="translate(458.037 1033.393)"/><line class="e" x2="216.354" y2="80.537" transform="translate(442.954 952.856)"/><line class="e" x2="11.739" y2="246.591" transform="translate(432.851 956.271)"/><line class="e" x1="147.628" y1="229.872" transform="translate(285.224 978.042)"/><line class="e" y1="8.395" x2="129.201" transform="translate(295.255 951.22)"/><line class="e" x1="93.984" y2="105.723" transform="translate(291.911 848.841)"/><line class="e" x1="83.881" y1="179.501" transform="translate(177.865 773.355)"/><line class="e" x2="181.137" y2="221.406" transform="translate(206.394 615.696)"/><line class="e" x1="70.434" y1="333.887" transform="translate(203.05 613.989)"/><line class="e" y1="144.284" x2="21.771" transform="translate(177.865 619.04)"/><line class="e" x1="169.469" y1="161.074" transform="translate(0 605.593)"/><line class="e" x2="194.655" y2="11.739" transform="translate(0 598.906)"/><line class="e" x1="338.939" y2="63.747" transform="translate(0 533.451)"/><line class="e" y1="88.861" x2="164.418" transform="translate(208.03 516.732)"/><line class="e" y1="83.881" x2="221.477" transform="translate(392.583 426.092)"/><line class="e" x2="18.427" y2="43.612" transform="translate(622.455 426.092)"/><line class="e" x2="186.26" y2="233.216" transform="translate(187.896 270.07)"/><line class="e" x2="16.719" y2="286.86" transform="translate(182.916 271.777)"/><line class="e" y1="248.228" x2="157.659" transform="translate(385.895 253.35)"/><line class="e" x2="68.727" y2="167.762" transform="translate(550.313 251.643)"/><line class="e" y1="87.296" x2="298.599" transform="translate(241.611 249.935)"/><line class="e" y1="10.103" x2="338.868" transform="translate(196.291 246.591)"/><line class="e" x1="263.382" y2="72.142" transform="translate(196.291 182.845)"/><line class="e" x2="63.747" y2="50.371" transform="translate(474.827 186.189)"/><line class="e" y1="167.762" x2="45.249" transform="translate(469.776 5.051)"/><line class="e" x1="25.186" y1="229.801" transform="translate(520.076 5.051)"/><line class="e" x2="278.465" y2="162.711" transform="translate(528.471 0)"/><line class="e" y1="65.454" x2="241.54" transform="translate(557.001 177.793)"/><line class="e" x2="30.237" y2="176.157" transform="translate(823.726 191.24)"/><line class="e" x1="162.782" y2="280.172" transform="translate(647.569 191.24)"/><line class="e" y1="92.276" x2="192.876" transform="translate(654.328 384.188)"/></g><g transform="translate(-103.446 -267.508)"><circle class="a" cx="13.447" cy="13.447" r="13.447" transform="translate(1024.998 36.854)"/><circle class="a" cx="25.186" cy="25.186" r="25.186" transform="translate(815.331 166.054)"/><circle class="a" cx="20.134" cy="20.134" r="20.134" transform="translate(1251.526 208.03)"/><circle class="a" cx="13.447" cy="13.447" r="13.447" transform="translate(1477.984 209.667)"/><circle class="a" cx="13.447" cy="13.447" r="13.447" transform="translate(1258.214 426.092)"/><circle class="a" cx="10.032" cy="10.032" r="10.032" transform="translate(966.374 265.089)"/><circle class="a" cx="15.083" cy="15.083" r="15.083" transform="translate(520.076 0)"/><circle class="a" cx="10.032" cy="10.032" r="10.032" transform="translate(476.464 191.311)"/><circle class="a" cx="13.447" cy="13.447" r="13.447" transform="translate(551.878 251.643)"/><circle class="a" cx="20.134" cy="20.134" r="20.134" transform="translate(179.501 258.331)"/><circle class="a" cx="13.447" cy="13.447" r="13.447" transform="translate(860.58 384.116)"/><circle class="a" cx="20.134" cy="20.134" r="20.134" transform="translate(1538.386 687.838)"/><circle class="a" cx="13.447" cy="13.447" r="13.447" transform="translate(1160.887 563.688)"/><circle class="a" cx="8.395" cy="8.395" r="8.395" transform="translate(1055.235 503.286)"/><circle class="a" cx="10.032" cy="10.032" r="10.032" transform="translate(629.143 431.215)"/><circle class="a" cx="13.447" cy="13.447" r="13.447" transform="translate(649.206 486.495)"/><circle class="a" cx="13.447" cy="13.447" r="13.447" transform="translate(385.824 518.369)"/><circle class="a" cx="11.739" cy="11.739" r="11.739" transform="translate(208.03 617.404)"/><circle class="a" cx="11.739" cy="11.739" r="11.739" transform="translate(0 607.301)"/><circle class="a" cx="8.395" cy="8.395" r="8.395" transform="translate(186.189 781.75)"/><circle class="a" cx="21.842" cy="21.842" r="21.842" transform="translate(273.413 964.595)"/><circle class="a" cx="11.739" cy="11.739" r="11.739" transform="translate(439.539 957.908)"/><circle class="a" cx="10.032" cy="10.032" r="10.032" transform="translate(399.342 852.256)"/><circle class="a" cx="18.427" cy="18.427" r="18.427" transform="translate(444.59 1219.653)"/><circle class="a" cx="30.166" cy="30.166" r="30.166" transform="translate(511.681 677.806)"/><circle class="a" cx="6.688" cy="6.688" r="6.688" transform="translate(634.194 662.652)"/><circle class="a" cx="15.083" cy="15.083" r="15.083" transform="translate(736.502 753.292)"/><circle class="a" cx="18.427" cy="18.427" r="18.427" transform="translate(887.473 548.606)"/><circle class="a" cx="10.032" cy="10.032" r="10.032" transform="translate(996.54 719.711)"/><circle class="a" cx="10.032" cy="10.032" r="10.032" transform="translate(1320.324 773.426)"/><circle class="a" cx="25.186" cy="25.186" r="25.186" transform="translate(1246.475 892.453)"/><circle class="a" cx="6.688" cy="6.688" r="6.688" transform="translate(1204.57 931.085)"/><circle class="a" cx="11.739" cy="11.739" r="11.739" transform="translate(1065.267 984.801)"/><circle class="a" cx="13.447" cy="13.447" r="13.447" transform="translate(1035.101 1226.341)"/><circle class="a" cx="10.032" cy="10.032" r="10.032" transform="translate(845.568 867.339)"/><circle class="a" cx="11.739" cy="11.739" r="11.739" transform="translate(1077.006 853.892)"/><circle class="a" cx="10.032" cy="10.032" r="10.032" transform="translate(701.284 1132.428)"/></g></g></g></g></svg>